<svg width="272" height="44" viewBox="0 0 272 44" fill="none" xmlns="http://www.w3.org/2000/svg">
<path opacity="0.7" d="M80.72 28L82.768 15.936H85.872L88.288 22.368L90.688 15.936H93.792L95.84 28H92.72L91.68 21.056L88.832 28H87.584L84.88 21.056L83.84 28H80.72ZM100.963 15.936V28H97.8265V15.936H100.963ZM106.619 15.936V25.344H110.379V28H103.483V15.936H106.619ZM119.058 23.52L117.65 19.504L116.242 23.52H119.058ZM119.89 25.904H115.41L114.69 28H111.346L115.938 15.936H119.362L123.954 28H120.61L119.89 25.904ZM125.327 28V15.936H128.463L134.255 23.312V15.936H137.375V28H134.255L128.463 20.624V28H125.327ZM144.798 28L146.846 15.936H149.95L152.366 22.368L154.766 15.936H157.87L159.918 28H156.798L155.758 21.056L152.91 28H151.662L148.958 21.056L147.918 28H144.798ZM168.465 23.52L167.057 19.504L165.649 23.52H168.465ZM169.297 25.904H164.817L164.097 28H160.753L165.345 15.936H168.769L173.361 28H170.017L169.297 25.904ZM177.869 20.592H182.397V15.936H185.533V28H182.397V23.024H177.869V28H174.733V15.936H177.869V20.592ZM194.925 18.592H191.197V20.608H194.717V23.264H191.197V25.344H194.925V28H188.061V15.936H194.925V18.592ZM203.81 19.024C203.469 18.7467 203.127 18.544 202.786 18.416C202.445 18.2773 202.114 18.208 201.794 18.208C201.389 18.208 201.058 18.304 200.802 18.496C200.546 18.688 200.418 18.9387 200.418 19.248C200.418 19.4613 200.482 19.6373 200.61 19.776C200.738 19.9147 200.903 20.0373 201.106 20.144C201.319 20.24 201.554 20.3253 201.81 20.4C202.077 20.4747 202.338 20.5547 202.594 20.64C203.618 20.9813 204.365 21.44 204.834 22.016C205.314 22.5813 205.554 23.3227 205.554 24.24C205.554 24.8587 205.447 25.4187 205.234 25.92C205.031 26.4213 204.727 26.8533 204.322 27.216C203.927 27.568 203.437 27.84 202.85 28.032C202.274 28.2347 201.618 28.336 200.882 28.336C199.357 28.336 197.943 27.8827 196.642 26.976L197.986 24.448C198.455 24.864 198.919 25.1733 199.378 25.376C199.837 25.5787 200.29 25.68 200.738 25.68C201.25 25.68 201.629 25.5627 201.874 25.328C202.13 25.0933 202.258 24.8267 202.258 24.528C202.258 24.3467 202.226 24.192 202.162 24.064C202.098 23.9253 201.991 23.8027 201.842 23.696C201.693 23.5787 201.495 23.472 201.25 23.376C201.015 23.28 200.727 23.1733 200.386 23.056C199.981 22.928 199.581 22.7893 199.186 22.64C198.802 22.48 198.455 22.272 198.146 22.016C197.847 21.76 197.602 21.44 197.41 21.056C197.229 20.6613 197.138 20.1653 197.138 19.568C197.138 18.9707 197.234 18.432 197.426 17.952C197.629 17.4613 197.906 17.0453 198.258 16.704C198.621 16.352 199.058 16.08 199.57 15.888C200.093 15.696 200.674 15.6 201.314 15.6C201.911 15.6 202.535 15.6853 203.186 15.856C203.837 16.016 204.461 16.256 205.058 16.576L203.81 19.024ZM210.666 20.592H215.194V15.936H218.33V28H215.194V23.024H210.666V28H207.53V15.936H210.666V20.592ZM222.874 15.936L224.954 23.728L227.514 15.936H230.01L232.57 23.728L234.65 15.936H237.93L234.33 28H231.13L228.762 21.008L226.394 28H223.194L219.594 15.936H222.874ZM245.121 23.52L243.713 19.504L242.305 23.52H245.121ZM245.953 25.904H241.473L240.753 28H237.409L242.001 15.936H245.425L250.017 28H246.673L245.953 25.904ZM254.525 21.328H255.117C255.736 21.328 256.21 21.2 256.541 20.944C256.872 20.688 257.037 20.32 257.037 19.84C257.037 19.36 256.872 18.992 256.541 18.736C256.21 18.48 255.736 18.352 255.117 18.352H254.525V21.328ZM261.421 28H257.517L254.525 23.36V28H251.389V15.936H256.269C256.941 15.936 257.528 16.0373 258.029 16.24C258.53 16.432 258.941 16.6987 259.261 17.04C259.592 17.3813 259.837 17.776 259.997 18.224C260.168 18.672 260.253 19.152 260.253 19.664C260.253 20.5813 260.029 21.328 259.581 21.904C259.144 22.4693 258.493 22.8533 257.629 23.056L261.421 28ZM265.869 15.936V28H262.733V15.936H265.869Z" fill="#050401"/>
<rect width="30.3038" height="31.0559" rx="1" transform="matrix(0.707107 0.707107 0.707107 -0.707107 21.6121 21.9598)" fill="#FF7D49"/>
<mask id="path-3-inside-1" fill="white">
<rect width="30.1345" height="31.4417" rx="1" transform="matrix(0.707107 0.707107 0.707107 -0.707107 0 22.374)"/>
</mask>
<rect width="30.1345" height="31.4417" rx="1" transform="matrix(0.707107 0.707107 0.707107 -0.707107 0 22.374)" stroke="#FF7D49" stroke-width="4" mask="url(#path-3-inside-1)"/>
</svg>
